/* XPM */
static char * coin_xpm[] = {
"64 64 561 2",
"  	c #5A6D3B",
". 	c #596C3A",
"+ 	c #576939",
"@ 	c #576A39",
"# 	c #586B3A",
"$ 	c #566939",
"% 	c #536436",
"& 	c #516235",
"* 	c #586A39",
"= 	c #526335",
"- 	c #536536",
"; 	c #526436",
"> 	c #536537",
", 	c #556738",
"' 	c #596B3A",
") 	c #526336",
"! 	c #566838",
"~ 	c #546637",
"{ 	c #202020",
"] 	c #596C3B",
"^ 	c #556637",
"/ 	c #48802A",
"( 	c #1D111F",
"_ 	c #49822B",
": 	c #68BC36",
"< 	c #68BB36",
"[ 	c #546537",
"} 	c #487F2A",
"| 	c #4B852B",
"1 	c #4B862B",
"2 	c #4C872B",
"3 	c #42752A",
"4 	c #315429",
"5 	c #4D8B30",
"6 	c #73D23C",
"7 	c #73D03A",
"8 	c #4C872C",
"9 	c #566839",
"0 	c #73D13A",
"a 	c #65B838",
"b 	c #458235",
"c 	c #4E9338",
"d 	c #73D33E",
"e 	c #837A1E",
"f 	c #89801E",
"g 	c #8A7B1E",
"h 	c #8D721F",
"i 	c #8D661F",
"j 	c #8A571F",
"k 	c #834B1E",
"l 	c #48812B",
"m 	c #5EAA32",
"n 	c #78D93C",
"o 	c #80EB41",
"p 	c #7AE541",
"q 	c #76DD41",
"r 	c #74D740",
"s 	c #67C03E",
"t 	c #49963C",
"u 	c #4C9D3D",
"v 	c #69CA40",
"w 	c #68C33A",
"x 	c #457E2B",
"y 	c #847B22",
"z 	c #C2B525",
"A 	c #D7C927",
"B 	c #D8CA27",
"C 	c #D9C225",
"D 	c #DDB422",
"E 	c #DDA11F",
"F 	c #D9891C",
"G 	c #C26E1C",
"H 	c #844B1E",
"I 	c #0F1C20",
"J 	c #80E840",
"K 	c #67CF41",
"L 	c #57B840",
"M 	c #51A23D",
"N 	c #4A973C",
"O 	c #419A3E",
"P 	c #45A740",
"Q 	c #52B841",
"R 	c #4EA83A",
"S 	c #366C2B",
"T 	c #847C22",
"U 	c #AFA63A",
"V 	c #E2D755",
"W 	c #F8ED60",
"X 	c #F9EE60",
"Y 	c #FAE655",
"Z 	c #FCD73A",
"` 	c #FCC421",
" .	c #FAAC1B",
"..	c #DF8B1A",
"+.	c #A25D1A",
"@.	c #6E2B1A",
"#.	c #6D2E1A",
"$.	c #718028",
"%.	c #75C43A",
"&.	c #77E041",
"*.	c #76E141",
"=.	c #6BD141",
"-.	c #4FB040",
";.	c #368C3D",
">.	c #2B6C3B",
",.	c #2F753B",
"'.	c #3B9B3F",
").	c #40A941",
"!.	c #3DA140",
"~.	c #358839",
"{.	c #27542A",
"].	c #1D101F",
"^.	c #E2D753",
"/.	c #F5EF7F",
"(.	c #FEFA91",
"_.	c #FDF37F",
":.	c #FBE654",
"<.	c #FBD625",
"[.	c #FDC31D",
"}.	c #ECA41A",
"|.	c #C67312",
"1.	c #AD460B",
"2.	c #AB460C",
"3.	c #9C7823",
"4.	c #76AC39",
"5.	c #59C241",
"6.	c #57C141",
"7.	c #50B140",
"8.	c #3D8E3D",
"9.	c #2D6D3B",
"0.	c #285E39",
"a.	c #2F763B",
"b.	c #3C9C3F",
"c.	c #35873D",
"d.	c #2C6736",
"e.	c #244229",
"f.	c #201D1F",
"g.	c #FAE654",
"h.	c #FDF991",
"i.	c #FBF37F",
"j.	c #FAD625",
"k.	c #FCC31D",
"l.	c #F0A519",
"m.	c #D5770B",
"n.	c #C05B0A",
"o.	c #B46A1A",
"p.	c #9B852B",
"q.	c #6CA03A",
"r.	c #3FA841",
"s.	c #39A040",
"t.	c #40993E",
"u.	c #4E953B",
"v.	c #4F963B",
"w.	c #4A983C",
"x.	c #368C3E",
"y.	c #2C6D3B",
"z.	c #346636",
"A.	c #447B2F",
"B.	c #376D2B",
"C.	c #2B5E2B",
"D.	c #8D731F",
"E.	c #DDB522",
"F.	c #FCD83A",
"G.	c #FBE755",
"H.	c #ED8E15",
"I.	c #D56B08",
"J.	c #B66B19",
"K.	c #918C2F",
"L.	c #6DA03A",
"M.	c #52A83F",
"N.	c #3B9E40",
"O.	c #33863D",
"P.	c #49953C",
"Q.	c #74D43F",
"R.	c #74D53F",
"S.	c #67C13E",
"T.	c #2D6E3B",
"U.	c #296039",
"V.	c #478739",
"W.	c #66BB3A",
"X.	c #68C43A",
"Y.	c #4FA93A",
"Z.	c #368836",
"`.	c #295B2A",
" +	c #DDA01F",
".+	c #FCC321",
"++	c #F8DF27",
"@+	c #FBAE1D",
"#+	c #F8971A",
"$+	c #EB7D12",
"%+	c #D36207",
"&+	c #AE721F",
"*+	c #739A38",
"=+	c #3BA841",
"-+	c #38A140",
";+	c #40983E",
">+	c #60B23D",
",+	c #78DC40",
"'+	c #80E941",
")+	c #6BC63E",
"!+	c #5AA83C",
"~+	c #5CAE3D",
"{+	c #6ED040",
"]+	c #6AD040",
"^+	c #50AE3C",
"/+	c #FAAB1B",
"(+	c #FDCE1E",
"_+	c #F8981A",
":+	c #F78F18",
"<+	c #EB7E12",
"[+	c #D36408",
"}+	c #AE741F",
"|+	c #759B38",
"1+	c #30883D",
"2+	c #60B33D",
"3+	c #5AA93C",
"4+	c #6BC53E",
"5+	c #61C741",
"6+	c #50AF3C",
"7+	c #3B8432",
"8+	c #0F1320",
"9+	c #89541D",
"0+	c #D98817",
"a+	c #FAA417",
"b+	c #FDB11B",
"c+	c #FDB81E",
"d+	c #FBAD1D",
"e+	c #F78F17",
"f+	c #F89715",
"g+	c #F1940F",
"h+	c #E08606",
"i+	c #C7881B",
"j+	c #A69A31",
"k+	c #7E983A",
"l+	c #52853B",
"m+	c #4EA23D",
"n+	c #73D840",
"o+	c #79DC40",
"p+	c #4B9C3D",
"q+	c #75D840",
"r+	c #68C73E",
"s+	c #4EA93C",
"t+	c #8D6720",
"u+	c #FCB11D",
"v+	c #FBA51B",
"w+	c #F99C1A",
"x+	c #F89C1A",
"y+	c #F78F19",
"z+	c #FAB61D",
"A+	c #F5B31C",
"B+	c #ECA91E",
"C+	c #E09C24",
"D+	c #BF952F",
"E+	c #7F993A",
"F+	c #57B740",
"G+	c #74DD41",
"H+	c #3F973E",
"I+	c #44A640",
"J+	c #52A33D",
"K+	c #478A38",
"L+	c #367030",
"M+	c #B29E3A",
"N+	c #E7C453",
"O+	c #FDCC52",
"P+	c #F9B738",
"Q+	c #F6A21C",
"R+	c #F69318",
"S+	c #F8B636",
"T+	c #FDCC51",
"U+	c #FFD75D",
"V+	c #E1A727",
"W+	c #B2A433",
"X+	c #89B33B",
"Y+	c #79C93E",
"Z+	c #65C13E",
"`+	c #46983D",
" @	c #2F823D",
".@	c #34923E",
"+@	c #389C3F",
"@@	c #338D3D",
"#@	c #286A37",
"$@	c #204830",
"%@	c #203227",
"&@	c #C2B626",
"*@	c #E3D655",
"=@	c #F6E97F",
"-@	c #FDEB7F",
";@	c #F9DC54",
">@	c #F6C222",
",@	c #F6A118",
"'@	c #F6C322",
")@	c #F8DC53",
"!@	c #FFF291",
"~@	c #FEEB7F",
"{@	c #F9DC53",
"]@	c #F1C525",
"^@	c #E1A824",
"/@	c #C1952D",
"(@	c #859437",
"_@	c #3C993E",
":@	c #38923E",
"<@	c #33823C",
"[@	c #30773B",
"}@	c #2B6837",
"|@	c #244A2E",
"1@	c #202D27",
"2@	c #FCF37F",
"3@	c #F8CC23",
"4@	c #F7A618",
"5@	c #F6A918",
"6@	c #F6D325",
"7@	c #F8ED5F",
"8@	c #FDFA91",
"9@	c #FFFFA5",
"0@	c #F8D726",
"a@	c #F8B419",
"b@	c #DF8F21",
"c@	c #A26E2C",
"d@	c #716F33",
"e@	c #718C36",
"f@	c #748D36",
"g@	c #6F5831",
"h@	c #705731",
"i@	c #6F502C",
"j@	c #6E3E22",
"k@	c #68301B",
"l@	c #FCD83B",
"m@	c #FAE755",
"n@	c #FBBF20",
"o@	c #F8A01A",
"p@	c #F8EE5F",
"q@	c #F9DC26",
"r@	c #FCC51C",
"s@	c #ECA51D",
"t@	c #C6761B",
"u@	c #AD5C1C",
"v@	c #AD6A1E",
"w@	c #AE6C1E",
"x@	c #AE5D1C",
"y@	c #AD531A",
"z@	c #AD521A",
"A@	c #AE5017",
"B@	c #AD4B10",
"C@	c #9C4211",
"D@	c #6A311B",
"E@	c #FBC321",
"F@	c #F8CD24",
"G@	c #F3A81A",
"H@	c #DF8110",
"I@	c #D36508",
"J@	c #D36307",
"K@	c #CF5F05",
"L@	c #C85602",
"M@	c #C95702",
"N@	c #D06106",
"O@	c #BF5B0F",
"P@	c #914417",
"Q@	c #69301B",
"R@	c #F89719",
"S@	c #FBC020",
"T@	c #F59619",
"U@	c #EF8715",
"V@	c #EB7F13",
"W@	c #EC7F13",
"X@	c #E2750E",
"Y@	c #D06004",
"Z@	c #D16105",
"`@	c #E2750F",
" #	c #DD7411",
".#	c #9B4212",
"+#	c #556737",
"@#	c #0D1720",
"##	c #88551D",
"$#	c #D98818",
"%#	c #FDB21C",
"&#	c #F8991A",
"*#	c #F38717",
"=#	c #ED8014",
"-#	c #EF8F16",
";#	c #F8AB1C",
">#	c #F9DF27",
",#	c #F8AC1C",
"'#	c #EF9016",
")#	c #ED8215",
"!#	c #F99D1A",
"~#	c #F89D1A",
"{#	c #EF9117",
"]#	c #DE770E",
"^#	c #DA6D0C",
"/#	c #E47811",
"(#	c #E67911",
"_#	c #B85911",
":#	c #753B1B",
"<#	c #ED8115",
"[#	c #DD700D",
"}#	c #DE760E",
"|#	c #DE750E",
"1#	c #DD6F0D",
"2#	c #EE8215",
"3#	c #FCAE1D",
"4#	c #FDB91E",
"5#	c #F9AC1C",
"6#	c #F09117",
"7#	c #E57911",
"8#	c #DA6C0C",
"9#	c #DB6E0B",
"0#	c #CD6F17",
"a#	c #83491D",
"b#	c #896920",
"c#	c #B59339",
"d#	c #E8C252",
"e#	c #FDCA52",
"f#	c #FBB037",
"g#	c #F78E17",
"h#	c #ED8A14",
"i#	c #DD8C0D",
"j#	c #DE910E",
"k#	c #EF9916",
"l#	c #FAA41B",
"m#	c #F4B21B",
"n#	c #EC8E15",
"o#	c #DA6C0B",
"p#	c #FAA81C",
"q#	c #FEBC1F",
"r#	c #FFC620",
"s#	c #EA7F13",
"t#	c #D56608",
"u#	c #D77A1A",
"v#	c #8A501E",
"w#	c #88681B",
"x#	c #CA9C20",
"y#	c #E8C353",
"z#	c #F8E37E",
"A#	c #FFE57E",
"B#	c #FECA52",
"C#	c #FBAD1C",
"D#	c #F3A01B",
"E#	c #EDBE20",
"F#	c #EFC721",
"G#	c #F8BE1F",
"H#	c #F09517",
"I#	c #E08611",
"J#	c #D46B09",
"K#	c #D96B0B",
"L#	c #EF9017",
"M#	c #FDBC1F",
"N#	c #FFC320",
"O#	c #D36308",
"P#	c #D46508",
"Q#	c #8D731D",
"R#	c #FDDC54",
"S#	c #FEF07F",
"T#	c #FBB41C",
"U#	c #F8AD19",
"V#	c #F7BF39",
"W#	c #F8DE54",
"X#	c #CF6005",
"Y#	c #EB7F14",
"Z#	c #FFC220",
"`#	c #8B7C21",
" $	c #DAC225",
".$	c #F9E33D",
"+$	c #FAEB55",
"@$	c #F8DC54",
"#$	c #F8B738",
"$$	c #F7C621",
"%$	c #FBF17F",
"&$	c #FBC21D",
"*$	c #E0740F",
"=$	c #CF5E05",
"-$	c #CA5802",
";$	c #763C1C",
">$	c #897621",
",$	c #D7B924",
"'$	c #F7D726",
")$	c #F9DD27",
"!$	c #F8CC24",
"~$	c #F7A71D",
"{$	c #FBF57F",
"]$	c #F8EC56",
"^$	c #FDCE1F",
"/$	c #E1750F",
"($	c #F48917",
"_$	c #E2760F",
":$	c #D06005",
"<$	c #C05003",
"[$	c #B34A09",
"}$	c #69311B",
"|$	c #895E1F",
"1$	c #D7941E",
"2$	c #F8B51E",
"3$	c #FCC61E",
"4$	c #FBBF1C",
"5$	c #F89F19",
"6$	c #F7E83E",
"7$	c #FDCF21",
"8$	c #D06105",
"9$	c #C85702",
"0$	c #B34B09",
"a$	c #8B3B16",
"b$	c #82471D",
"c$	c #F09217",
"d$	c #FAAC1C",
"e$	c #D96C0B",
"f$	c #EB8014",
"g$	c #516335",
"h$	c #75391B",
"i$	c #B85711",
"j$	c #F09016",
"k$	c #FAAC1D",
"l$	c #8B3C16",
"m$	c #9C4212",
"n$	c #C05B0E",
"o$	c #F48817",
"p$	c #DD710E",
"q$	c #EE8315",
"r$	c #D06006",
"s$	c #C95701",
"t$	c #AD490C",
"u$	c #AC480D",
"v$	c #904217",
"w$	c #BF5A0E",
"x$	c #E47911",
"y$	c #8A3A15",
"z$	c #6D321A",
"A$	c #6C321B",
"B$	c #753A1B",
"C$	c #DE780F",
"D$	c #F68B18",
"E$	c #F78C18",
"F$	c #F78B18",
"G$	c #E77E15",
"H$	c #C36010",
"I$	c #682F1B",
"J$	c #171F20",
"K$	c #81471D",
"L$	c #CC6F17",
"M$	c #DD7B19",
"N$	c #A1551A",
"O$	c #894E1E",
"P$	c #D87A1A",
"Q$	c #F9991A",
"R$	c #C55100",
"S$	c #C55200",
"T$	c #F08719",
"U$	c #E07E1A",
"V$	c #834C1E",
"W$	c #894F1E",
"X$	c #F79119",
"Y$	c #F99A1A",
"Z$	c #C45100",
"`$	c #C45000",
" %	c #AE631D",
".%	c #AB480C",
"+%	c #844C1E",
"@%	c #D16106",
"#%	c #B44B09",
"$%	c #6C311B",
"%%	c #82481D",
"&%	c #5A6C3B",
"*%	c #586A3A",
"                      . + @ #                                                                                 $ % & & & & & & & ",
"                                                                                                              * = & & & & & & & ",
"                                                                                                                # - ; % % ; % > ",
"                                                                            + ,                                               . ",
"                  * .                                                       ' .                                                 ",
"                + & )                                                                                                           ",
"                . ! *                                                                                                           ",
"~ #                                                                                                                             ",
") @                                                                                                                             ",
"                                                                                                                      .         ",
"                                                                                        { {                 ] ! ^ ~ - ~ + + + + ",
"                                                                                        / /                 @ % & & & & & & & & ",
"                                                                        { { { { { ( { _ : < _ {                   ] . # [ & & & ",
"                                                                    . @ } | 1 2 2 3 4 5 6 7 8 {         # - & & & ) % % ) & & & ",
"                                            { { { { { { { {     9 ; { / < 7 0 0 7 a b c d 0 8 {         . ! ; & & & & & & & ~ + ",
"                                            e f f g h i j k . ; & & l m n o p q r s t u v w x { # # # ' ' + ) & & & & & & & #   ",
"                                        { y z A B C D E F G H ( I } : n J p K L M N O P Q R S { & & & & & & & & & & & & & & & = ",
"                                        T U V W X Y Z `  ...+.@.#.$.%.&.*.=.-.;.>.,.'.).!.~.{.].& & & & & & & & & & & & & & & & ",
"                                    { e z ^./.(.(._.:.<.[.}.|.1.2.3.4.5.6.7.8.9.0.a.b.!.c.d.e.{ f.{ & & & & & & & & & & & & & & ",
"                                    { g C g._.h.h.i.g.j.k.l.m.n.o.p.q.r.s.t.t u.v.w.t.x.y.z.A.x B.C.+ + + + + + + $ , ~ & & & & ",
"      ~ ~ @                         { D.E.F.G.W W Y Z `  .H.I.J.K.L.M.N.O.P.s Q.R.S.t T.U.V.W.X.Y.Z.`.{               @ % & & & ",
"    . & & +                         { i  +.+<.++++j..+@+#+$+%+&+*+=+-+;+t >+,+'+,+)+!+u.u.~+{+]+^+Z.`.{           $ ) & & & & & ",
"      ] .                           { j F /+[.(+(+k./+_+:+<+[+}+|+s.1+t S.,+'+,+2+3+4+Q.Q.{+5+6+7+C.          , ) & & & & & ; % ",
"                                    8+9+0+a+b+c+c+d+_+e+f+g+h+i+j+k+l+m+n+'+o+s t p+v q q+r+s+Z.`.{           = & & = @ .       ",
"                                    { t+ +u+v+w+x+#+y+_+@+z+A+B+C+D+E+F+G+,+2+P.H+I+Q L J+K+L+`.              ' ~ ) %           ",
"                                    T M+N+O+P+Q+R+R+Q+S+T+U+U+T+S+V+W+X+Y+Z+`+ @.@+@+@@@#@$@%@{                                 ",
"                                { e &@*@=@-@;@>@,@,@'@)@-@!@!@~@{@]@^@/@(@t _@:@<@[@,.}@|@1@                                    ",
"                                { g C Y _.2@Y 3@4@5@6@7@8@9@9@8@7@0@a@b@c@d@e@f@d@g@h@i@j@k@                                    ",
"                                { D.E.l@G.m@l@n@o@5@6@p@8@9@9@8@p@q@r@s@t@u@v@w@x@y@z@A@B@C@D@{                                 ",
"                                { i  +E@<.j.` d+_+4@F@g.2@h.h.i.g.j.k.G@H@I@J@[+[+K@L@M@N@O@P@Q@                                ",
"      ~ & & & ; @               { j F  .[.k. .R@y+o@S@Z g.7@7@g.Z .+ .T@U@V@<+W@V@X@Y@Z@`@ #O@.#k@{                             ",
"    +#& & & & & & +             @###$#a+%#@+&#*#=#-#;#.+j.>#>#j..+,#'#)#*#y+_+!#~#{#]#^#/#(#^#_#:#{                             ",
",   , & & & & & & -             { t+ +u+v+_+:+<#[#}#'#/+k.(+(+k./+'#|#1#2#&#3#4#4#5#6#7#8#9#7#0#a#{                             ",
"& & = = & & & & & & .           b#c#d#e#f#&#g#h#i#j#k#l#u+z+m#l.n#/#o#}#{#p#q#r#r#4#~#s#[+t#s#u#v#{             .               ",
"& & & & & & & & & & % #     { w#x#y#z#A#B#C#f+D#E#F#G#u+l#H#I#m.J#K#/#L#,#M#N#r#r#4#!#s#O#P#s#u#v#{             * ]             ",
"& & & & & & & & & & & )     { Q#E.R#S#-@O+T#U#V#W#Y l@.+/+6#}#X#L@[+Y#!#4#r#r#Z#M#3#&#Y#[+Z@`@0#a#{                             ",
"& & & & & & & & & & & !     { `# $.$+$@$#$U#$$W#%$2@Y j.&$;#-#*$=$O#s#!#4#r#r#M#p#&#y+s#I@-$X#_#;${                             ",
"& & & & & & & & & & & #     { >$,$'$)$!$~$4@!$Y 2@{$]$++^$4#w+s#[+K@/${#5#4#4#3#&#($2#_$:$<$[$.#}${                             ",
"& & & & & & & & & + .       { |$1$2$3$4$o@5$S@l@Y ]$6$++7$4#!#Y#[+L@X#]#6#~#!#&#y+2#[#8$9$0$a$Q@                                ",
"& & & & & & & & 9           { b$0#c$d$;#{#'#;#.+j.++++j..+3#_+Y#[+L@K@e$7#s#Y#f$V@_$8$<$[$.#}${                                 ",
"& & & & & & g$*             { h$i$}#j$'#]#}#'#/+k.^$7$.+k$&#y+s#I@N@/$/#8#[+O#[+I@:$9$[$l$}$                                    ",
"# +#- % > , .               { k@m$n$ #/#o#K#/#{#5#4#4#3#&#o$)#/#e$p$)#q$p$r$s$<$0$t$u$.#D@{                                     ",
"                                Q@v$w$o#7#/#o#}#'#w+!#_+y+)#[#e$x$q$($($)#`@K@[$y$z$A$}$                                        ",
"                                { B$_#C$c${#C$e$/#s#Y#Y#Y#7#^#p$)#D$D$E$F$G$H$m$I${ J${                                         ",
"                                J$K$L${#5#5#{#/#K#[+O#[+I@e$x$)#o$D$D$E$D$M$N$}$                                                ",
"                                { O$P$Q$3#@+&#q$[#N@M@R$S$:$_$q$($E$E$T$U$G V${                                                 ",
"                                { W$u#X$Y$&#X$($)#/$K@Z$`$L@N@p$q$F$D$U$ %V$                                                    ",
"                                { V$G U$T$E$E$($q$_$:$<$[$.%u$_#0#P$u#G +%{                                                     ",
"                                    +% %U$D$F$q$p$@%M@#%l$z$$%:#%%W$W$V$                        + > % > +#, +                   ",
"                                # + { +%G u#P$0#_#t$.%m$D@{ J${ { { { {                       + & & & & & & & ) , &%            ",
"                          * % & & & & & V$W$W$%%:#z$z$}$& & & % .                             *%% & & & & & & & & ~             ",
"                          . , & & & & & { { { { { { { { & & & g$'                                   # ; & & & & & & +           ",
"                          + & & & & & & & & & & & & & & & & % .                         &%~           # & & & & & & +#          ",
"                    &%9 % & & & & & & & & & % ^ ^ ^ ^ ^ ^ !                             &%+             ! & g$! + # ]           ",
"                    , & & & & & & & & & & , ]                                                     . @ ! [ & & & ~               ",
"                    . , % & & & & = [ @ &%                                                        = & & & & & & & '             ",
"                            . *%.                                                                 + & & & & & & $               ",
"                                                                                                    * ; = [ , .                 ",
"                                                                                                                                ",
"                                                                                                                                ",
"                                                                                                                                ",
"                                                                                                                                ",
"                                                        . $                                                                     ",
"                                                        * ;                                                                     "};
