/* XPM */
static char * floor_xpm[] = {
"64 64 26 1",
" 	c #5A6D3B",
".	c #596C3A",
"+	c #576939",
"@	c #576A39",
"#	c #586B3A",
"$	c #566939",
"%	c #536436",
"&	c #516235",
"*	c #586A39",
"=	c #526335",
"-	c #536536",
";	c #526436",
">	c #536537",
",	c #556738",
"'	c #596B3A",
")	c #526336",
"!	c #566838",
"~	c #546637",
"{	c #596C3B",
"]	c #556637",
"^	c #546537",
"/	c #566839",
"(	c #516335",
"_	c #586A3A",
":	c #556737",
"<	c #5A6C3B",
"           .+@#                                        $%&&&&&&&",
"                                                       *=&&&&&&&",
"                                                        #-;%%;%>",
"                                      +,                       .",
"         *.                           '.                        ",
"        +&)                                                     ",
"        .!*                                                     ",
"~#                                                              ",
")@                                                              ",
"                                                           .    ",
"                                                      {!]~-~++++",
"                                                      @%&&&&&&&&",
"                                                         {.#^&&&",
"                                  .@+@{             #-&&&)%%)&&&",
"                                /;&&&&(,_{          .!;&&&&&&&~+",
"                              .;&&&&&&&&&&;^,$$+###''+)&&&&&&&# ",
"                              >&&&&&&&&&&&&&&&&&&&&&&&&&&&&&&&&=",
"                              :&=)&&&&&&&&&&&&&&&&&&&&&&&&&&&&&&",
"                                    .'#~)&&&&&&&&&&&&&&&&&&&&&&&",
"                                     *;&&&&&=-!++++++++++$,~&&&&",
"   ~~@                              .&&&&&(+               @%&&&",
"  .&&+                               ,-%%,.              $)&&&&&",
"   {.                                                  ,)&&&&&;%",
"                                                       =&&=@.   ",
"                                                       '~)%     ",
"                                                                ",
"                                                                ",
"                                                                ",
"                                                                ",
"                                                                ",
"   ~&&&;@                                                       ",
"  :&&&&&&+                                                      ",
", ,&&&&&&-              .                                       ",
"&&==&&&&&&.            ~&.                              .       ",
"&&&&&&&&&&%#           #!                               *{      ",
"&&&&&&&&&&&)                                                    ",
"&&&&&&&&&&&!                                  ,%~               ",
"&&&&&&&&&&&#                                  (&){              ",
"&&&&&&&&&+.                                   {#                ",
"&&&&&&&&/                                                       ",
"&&&&&&(*                                                        ",
"#:-%>,.                                                         ",
"                                                                ",
"                                                                ",
"                                                                ",
"                                                                ",
"                                                                ",
"                       @/,!*<                                   ",
"                      @%&&&&)                   +>%>:,+         ",
"                #+/+_..'/=&&&;!                +&&&&&&&),<      ",
"             *%&&&&&&&&&&&&&&&&%.              _%&&&&&&&&~      ",
"             .,&&&&&&&&&&&&&&&&('                 #;&&&&&&+     ",
"             +&&&&&&&&&&&&&&&&%.            <~     #&&&&&&:     ",
"          </%&&&&&&&&&%]]]]]]!              <+      !&(!+#{     ",
"          ,&&&&&&&&&&,{                          .@!^&&&~       ",
"          .,%&&&&=^@<                            =&&&&&&&'      ",
"              ._.                                +&&&&&&$       ",
"                                                  *;=^,.        ",
"                                                                ",
"                                                                ",
"                                                                ",
"                                                                ",
"                            .$                                  ",
"                            *;                                  "};
