/* XPM */
static char * wall_xpm[] = {
"64 64 587 2",
"  	c #5A6D3B",
". 	c #596C3A",
"+ 	c #576939",
"@ 	c #576A39",
"# 	c #586B3A",
"$ 	c #566939",
"% 	c #536436",
"& 	c #516235",
"* 	c #586A39",
"= 	c #526335",
"- 	c #536536",
"; 	c #526436",
"> 	c #536537",
", 	c #556738",
"' 	c #596B3A",
") 	c #526336",
"! 	c #566838",
"~ 	c #546637",
"{ 	c #596C3B",
"] 	c #556637",
"^ 	c #546537",
"/ 	c #566839",
"( 	c #516335",
"_ 	c #586A3A",
": 	c #2B5F35",
"< 	c #2B5B32",
"[ 	c #437E3B",
"} 	c #254C2B",
"| 	c #3D6D31",
"1 	c #2C6035",
"2 	c #2B6035",
"3 	c #255431",
"4 	c #3B7037",
"5 	c #315F32",
"6 	c #1A402B",
"7 	c #3C763B",
"8 	c #3E7A3C",
"9 	c #589A3E",
"0 	c #509242",
"a 	c #5D9F3E",
"b 	c #52933E",
"c 	c #458641",
"d 	c #428240",
"e 	c #225231",
"f 	c #27382A",
"g 	c #583531",
"h 	c #283B2B",
"i 	c #336E3B",
"j 	c #35703B",
"k 	c #44803C",
"l 	c #478840",
"m 	c #275A35",
"n 	c #454732",
"o 	c #4F6B3D",
"p 	c #51923F",
"q 	c #549641",
"r 	c #62A53D",
"s 	c #63A63D",
"t 	c #6CB339",
"u 	c #61A53D",
"v 	c #60863D",
"w 	c #4C643C",
"x 	c #225433",
"y 	c #295231",
"z 	c #77503C",
"A 	c #CE7753",
"B 	c #764C3C",
"C 	c #3E7C3F",
"D 	c #3F8040",
"E 	c #4A8B41",
"F 	c #546F3E",
"G 	c #B35C4A",
"H 	c #BB6B4D",
"I 	c #62863D",
"J 	c #4E8F41",
"K 	c #68AF3A",
"L 	c #69AF3A",
"M 	c #5C823D",
"N 	c #B2654A",
"O 	c #B2624A",
"P 	c #444D33",
"Q 	c #3C6E37",
"R 	c #68493A",
"S 	c #954141",
"T 	c #69503A",
"U 	c #63A73A",
"V 	c #62A63D",
"W 	c #5CA03E",
"X 	c #4D8B41",
"Y 	c #80403C",
"Z 	c #C56B50",
"` 	c #C66C50",
" .	c #56953F",
"..	c #66AB3B",
"+.	c #66AB3C",
"@.	c #65AA3C",
"#.	c #5FA23E",
"$.	c #5C833B",
"%.	c #873E3E",
"&.	c #863C3D",
"*.	c #445F3B",
"=.	c #204F31",
"-.	c #2D5B31",
";.	c #468240",
">.	c #535A3A",
",.	c #55933E",
"'.	c #5EA23E",
").	c #61A43D",
"!.	c #54743B",
"~.	c #4E6B3D",
"{.	c #5A9D3F",
"].	c #68AE3A",
"^.	c #60A53D",
"/.	c #4D8E40",
"(.	c #52753B",
"_.	c #48653C",
":.	c #35753F",
"<.	c #235533",
"[.	c #46833E",
"}.	c #5A9B3E",
"|.	c #599B3E",
"1.	c #54973F",
"2.	c #6AAF3A",
"3.	c #6FB737",
"4.	c #5A9C3F",
"5.	c #3A793F",
"6.	c #51913F",
"7.	c #56983F",
"8.	c #519342",
"9.	c #529340",
"0.	c #5DA03F",
"a.	c #48883F",
"b.	c #2E6D3D",
"c.	c #325A31",
"d.	c #855D41",
"e.	c #947843",
"f.	c #529041",
"g.	c #569840",
"h.	c #6DB438",
"i.	c #67AC3B",
"j.	c #6FB638",
"k.	c #5A9C3E",
"l.	c #4D8F42",
"m.	c #3F7C40",
"n.	c #506E3E",
"o.	c #597B3F",
"p.	c #599B40",
"q.	c #448240",
"r.	c #4B8B41",
"s.	c #428341",
"t.	c #4E8F42",
"u.	c #478740",
"v.	c #245633",
"w.	c #295A33",
"x.	c #59653B",
"y.	c #AD5C49",
"z.	c #A64E46",
"A.	c #667D3A",
"B.	c #64A73D",
"C.	c #70B737",
"D.	c #6BB03A",
"E.	c #67AB3B",
"F.	c #498941",
"G.	c #4E6C3D",
"H.	c #B2634A",
"I.	c #5B813D",
"J.	c #62A23D",
"K.	c #845D40",
"L.	c #855C41",
"M.	c #3E783F",
"N.	c #408140",
"O.	c #3E783C",
"P.	c #305E31",
"Q.	c #39743E",
"R.	c #66483A",
"S.	c #674A3A",
"T.	c #49853F",
"U.	c #599C3F",
"V.	c #6AB03A",
"W.	c #70B837",
"X.	c #6CB239",
"Y.	c #4E9042",
"Z.	c #4C6C3D",
"`.	c #49653C",
" +	c #7C653C",
".+	c #CC7052",
"++	c #D27A55",
"@+	c #754C3C",
"#+	c #30693E",
"$+	c #29633C",
"%+	c #1B402A",
"&+	c #2B5737",
"*+	c #59563B",
"=+	c #4E673D",
"-+	c #508F3D",
";+	c #6CB338",
">+	c #519441",
",+	c #5DA13C",
"'+	c #66AA3C",
")+	c #63A83A",
"!+	c #43823F",
"~+	c #49863F",
"{+	c #3C7A40",
"]+	c #67423A",
"^+	c #A74D46",
"/+	c #663D3A",
"(+	c #265338",
"_+	c #1D4634",
":+	c #84463C",
"<+	c #B35D4A",
"[+	c #60823C",
"}+	c #51933E",
"|+	c #498B41",
"1+	c #418241",
"2+	c #54913E",
"3+	c #509140",
"4+	c #39773F",
"5+	c #61A33D",
"6+	c #55973F",
"7+	c #498340",
"8+	c #66413A",
"9+	c #66403A",
"0+	c #284E38",
"a+	c #574C36",
"b+	c #BB5C4C",
"c+	c #DD8759",
"d+	c #CE7153",
"e+	c #944941",
"f+	c #4A863C",
"g+	c #458540",
"h+	c #5A793F",
"i+	c #A76648",
"j+	c #63863F",
"k+	c #60A33D",
"l+	c #38783F",
"m+	c #478841",
"n+	c #4C8D41",
"o+	c #5C9E3E",
"p+	c #6EB538",
"q+	c #5FA33E",
"r+	c #61A43E",
"s+	c #4F8B3F",
"t+	c #58943D",
"u+	c #48873E",
"v+	c #3A7037",
"w+	c #21472B",
"x+	c #1C422B",
"y+	c #49663C",
"z+	c #883D3E",
"A+	c #B6574A",
"B+	c #A64C46",
"C+	c #6A5139",
"D+	c #5A993F",
"E+	c #81453C",
"F+	c #BD654D",
"G+	c #80423C",
"H+	c #45803F",
"I+	c #50913F",
"J+	c #47873F",
"K+	c #56973F",
"L+	c #5EA13E",
"M+	c #6EB638",
"N+	c #60A33E",
"O+	c #5EA03E",
"P+	c #589A40",
"Q+	c #3E793B",
"R+	c #1B3F2A",
"S+	c #275632",
"T+	c #3F7F3F",
"U+	c #408040",
"V+	c #4B663C",
"W+	c #753739",
"X+	c #684E39",
"Y+	c #64A539",
"Z+	c #5DA03E",
"`+	c #4F6D3D",
" @	c #743839",
".@	c #49633C",
"+@	c #39783F",
"@@	c #63A73D",
"#@	c #6DB339",
"$@	c #559741",
"%@	c #4B8C41",
"&@	c #336D3A",
"*@	c #22492C",
"=@	c #49873F",
"-@	c #5FA13D",
";@	c #55923B",
">@	c #64A739",
",@	c #6DB439",
"'@	c #3E7A3F",
")@	c #31703E",
"!@	c #428340",
"~@	c #4F9142",
"{@	c #599C40",
"]@	c #6E9C39",
"^@	c #709D39",
"/@	c #579A40",
"(@	c #62A43D",
"_@	c #468841",
":@	c #45813D",
"<@	c #556737",
"[@	c #2F5E32",
"}@	c #2F643E",
"|@	c #3B7B40",
"1@	c #4B8D41",
"2@	c #52943E",
"3@	c #488541",
"4@	c #616F3D",
"5@	c #356F3E",
"6@	c #3A7B40",
"7@	c #599A3E",
"8@	c #67933B",
"9@	c #B2664A",
"0@	c #B2674A",
"a@	c #638E3C",
"b@	c #69AE3A",
"c@	c #417E40",
"d@	c #1E4531",
"e@	c #1D4531",
"f@	c #599A3F",
"g@	c #5FA13E",
"h@	c #6AB13A",
"i@	c #53903E",
"j@	c #876141",
"k@	c #CA7052",
"l@	c #865A41",
"m@	c #3E7E40",
"n@	c #597D3C",
"o@	c #5C853B",
"p@	c #6FB738",
"q@	c #61A63D",
"r@	c #54753E",
"s@	c #626E3D",
"t@	c #3B763F",
"u@	c #387840",
"v@	c #25543C",
"w@	c #16382A",
"x@	c #214E38",
"y@	c #2E6A3E",
"z@	c #38763E",
"A@	c #478441",
"B@	c #865F41",
"C@	c #917044",
"D@	c #5E703D",
"E@	c #A64D46",
"F@	c #D47B55",
"G@	c #5D6D3D",
"H@	c #468741",
"I@	c #529040",
"J@	c #876641",
"K@	c #876341",
"L@	c #4E693C",
"M@	c #53763B",
"N@	c #5F7F40",
"O@	c #B35E4A",
"P@	c #845440",
"Q@	c #30653D",
"R@	c #255435",
"S@	c #1A3F2F",
"T@	c #214D38",
"U@	c #2B693D",
"V@	c #2F6B3E",
"W@	c #565F3C",
"X@	c #57613C",
"Y@	c #458741",
"Z@	c #41793F",
"`@	c #673E3A",
" #	c #943F40",
".#	c #673F3A",
"+#	c #39723F",
"@#	c #408141",
"##	c #3D7C40",
"$#	c #795C3E",
"%#	c #77563D",
"&#	c #5D9D3E",
"*#	c #5EA03F",
"=#	c #5C9A3E",
"-#	c #944D41",
";#	c #554836",
">#	c #275C3B",
",#	c #163629",
"'#	c #1E4734",
")#	c #2A643D",
"!#	c #316A3F",
"~#	c #39713F",
"{#	c #653E3A",
"]#	c #366D3E",
"^#	c #3A7A40",
"/#	c #34733F",
"(#	c #2F643D",
"_#	c #4F463A",
":#	c #428040",
"<#	c #67493A",
"[#	c #684C3A",
"}#	c #4F8F41",
"|#	c #498641",
"1#	c #68453A",
"2#	c #A64B46",
"3#	c #883C3E",
"4#	c #414B3A",
"5#	c #1B4130",
"6#	c #24523C",
"7#	c #2B5F3D",
"8#	c #33723E",
"9#	c #2A5C3D",
"0#	c #2F6E3E",
"a#	c #2E683E",
"b#	c #36763F",
"c#	c #29623D",
"d#	c #3B7B3F",
"e#	c #4F8E41",
"f#	c #418141",
"g#	c #3A753F",
"h#	c #66493A",
"i#	c #407C3F",
"j#	c #5D7E3F",
"k#	c #A76548",
"l#	c #43823E",
"m#	c #653F3A",
"n#	c #753339",
"o#	c #47583C",
"p#	c #2F673E",
"q#	c #214C38",
"r#	c #1B4030",
"s#	c #25563D",
"t#	c #2B5F3E",
"u#	c #28603D",
"v#	c #275B3D",
"w#	c #2B603E",
"x#	c #30683E",
"y#	c #245539",
"z#	c #2E693E",
"A#	c #51663D",
"B#	c #546D3E",
"C#	c #34743F",
"D#	c #498741",
"E#	c #81413C",
"F#	c #3C783F",
"G#	c #2D6C3D",
"H#	c #336C3E",
"I#	c #2D5F3D",
"J#	c #285C3D",
"K#	c #204B37",
"L#	c #204C38",
"M#	c #235438",
"N#	c #24533D",
"O#	c #26593D",
"P#	c #24543D",
"Q#	c #1D4633",
"R#	c #2C5D3C",
"S#	c #803D3C",
"T#	c #7F3D3C",
"U#	c #316B3D",
"V#	c #3B7C40",
"W#	c #475A3C",
"X#	c #743439",
"Y#	c #45543B",
"Z#	c #397940",
"`#	c #326F3E",
" $	c #2B663D",
".$	c #1A4030",
"+$	c #1A402F",
"@$	c #434A3B",
"#$	c #47593C",
"$$	c #326E3E",
"%$	c #36733F",
"&$	c #3B7A3F",
"*$	c #397A40",
"=$	c #376B3E",
"-$	c #306E3E",
";$	c #306F3E",
">$	c #204C37",
",$	c #1E3D2C",
"'$	c #204B38",
")$	c #264B38",
"!$	c #316D3E",
"~$	c #2C6B3D",
"{$	c #33733F",
"]$	c #2A663D",
"^$	c #285F3D",
"/$	c #224E39",
"($	c #658846",
"_$	c #648746",
":$	c #4E6637",
"<$	c #2E3A2D",
"[$	c #214433",
"}$	c #245534",
"|$	c #265A3D",
"1$	c #26573D",
"2$	c #2C643E",
"3$	c #2C6A3D",
"4$	c #34713F",
"5$	c #658746",
"6$	c #5F8143",
"7$	c #53703C",
"8$	c #4B4B2B",
"9$	c #5B3532",
"0$	c #543933",
"a$	c #3A3D31",
"b$	c #46322B",
"c$	c #234A37",
"d$	c #1D4030",
"e$	c #24533C",
"f$	c #275B39",
"g$	c #648645",
"h$	c #445331",
"i$	c #53352C",
"j$	c #5A332D",
"k$	c #77473A",
"l$	c #633A32",
"m$	c #603835",
"n$	c #533730",
"o$	c #533832",
"p$	c #274B38",
"q$	c #395937",
"r$	c #3B5B38",
"s$	c #264C35",
"t$	c #56763F",
"u$	c #3B5B37",
"v$	c #5B7B40",
"w$	c #50402C",
"x$	c #734E34",
"y$	c #8A523C",
"z$	c #7F4B38",
"A$	c #854F3C",
"B$	c #8D533D",
"C$	c #6A3F38",
"D$	c #774534",
"E$	c #6C3E32",
"F$	c #5A3B33",
"G$	c #5D4C30",
"H$	c #5A7B40",
"I$	c #597A40",
"J$	c #455430",
"K$	c #8B5C3A",
"L$	c #936040",
"M$	c #774938",
"N$	c #8E5C3C",
"O$	c #8E543D",
"P$	c #96593E",
"Q$	c #834E3C",
"R$	c #784838",
"S$	c #89513B",
"T$	c #825638",
"U$	c #6F5733",
"V$	c #5A7A40",
"W$	c #4D5E34",
"X$	c #5E412C",
"Y$	c #714E31",
"Z$	c #956840",
"`$	c #744736",
" %	c #8C5E40",
".%	c #A26F44",
"+%	c #693E34",
"@%	c #996340",
"#%	c #8B633C",
"$%	c #6F4331",
"%%	c #8A5B3A",
"&%	c #515A32",
"*%	c #638645",
"=%	c #4C5330",
"-%	c #97623F",
";%	c #734736",
">%	c #434F2F",
",%	c #87623A",
"'%	c #946140",
")%	c #443625",
"!%	c #5D392F",
"~%	c #936140",
"{%	c #7C5535",
"]%	c #485833",
"^%	c #5C7C41",
"/%	c #5E7F42",
"(%	c #494E2E",
"_%	c #4B5E34",
":%	c #5D7E42",
"<%	c #624F31",
"[%	c #51402D",
"}%	c #5A7940",
"|%	c #536F3B",
"1%	c #43472B",
"2%	c #536839",
"3%	c #648745",
"4%	c #5F8043",
"5%	c #597940",
"6%	c #5A6C3B",
"                      . + @ #                                                                                 $ % & & & & & & & ",
"                                                                                                              * = & & & & & & & ",
"                                                                                                                # - ; % % ; % > ",
"                                                                            + ,                                               . ",
"                  * .                                                       ' .                                                 ",
"                + & )                                                                                                           ",
"                . ! *                                                                                                           ",
"~ #                                                                                                                             ",
") @                                                                                                                             ",
"                                                                                                                      .         ",
"                                                                                                            { ! ] ~ - ~ + + + + ",
"                                                                                                            @ % & & & & & & & & ",
"                                                                                                                  { . # ^ & & & ",
"                                                                    . @ + @ {                           # - & & & ) % % ) & & & ",
"                                                                / ; & & & & ( , _ {                     . ! ; & & & & & & & ~ + ",
"                                                            . ; & & & : < [ } | 1 2 ; ^ , $ $ + # # # ' ' + ) & & & & & & & #   ",
"                                                        3   4 5 & 6 7 8 9 0 a b c d e & & & & & & & & & & & & & & & & & & & & = ",
"                                                f g h i j k l m n o p q r s t u q v w x & & & & & & & & & & & & & & & & & & & & ",
"                                              y z A B C 9 D E F G H I J K t L s M N O P & & & & & & & & & & & & & & & & & & & & ",
"                                              Q R S T U V W X Y Z ` Y  ...+.@.#.$.%.&.*.=.- ! + + + + + + + + + + $ , ~ & & & & ",
"      ~ ~ @                                 -.E ;.>.,.'.V L ).!.&.&.~.q r {.].^./.(._.:.<.                            @ % & & & ",
"    . & & +                               : [.}.|.1.L +.2.3.s 4.(._.5.6.7.8.9.0 0.|.a.b.=.                        $ ) & & & & & ",
"      { .                                 c.d.e.f.g.t 3.h.3.i.j.k.l.m.n.o.p.).q.r.s.t.u.v.                    , ) & & & & & ; % ",
"                                        w.x.y.z.A.s B.C.C.D.2.E.g.F.G.H.N I.J.K.L.M.N.O.P.                    = & & = @ .       ",
"                                        : Q.R.S.T.U.L 3.V.W...X.u Y.Z.%.&.`. +.+++@+#+$+%+                    ' ~ ) %           ",
"                                        &+*+=+-+;+>+,+'+B...u ].)+!+~+_.Z.{+]+^+^+/+(+_+                                        ",
"                                        :+.+<+[+}+|+1+2+r 8.3+J d 4+5+k.U.6+7+8+9+0+                                            ",
"                                    3 a+b+c+d+e+f+g+h+i+j+p.k+l+m+n+o+B.p+q+r+s+t+u+v+w+                                        ",
"                                    x+y+z+A+B+C+k+D+E+F+G+H+I+J+K+L+M+t N+s L q+O+P+m+Q+R+                                      ",
"                                  S+T+U+V+W+X+Y+E.Z+`+ @.@+@F.0 O+@@t W.#@3.W.p+U.$@%@U+&@                                      ",
"      ~ & & & ; @                 *@%@=@-@;@>@,@j.{.Y.'@)@!@~@{@q+j.E.]@^@V.L /@8.(@k._@:@                                      ",
"    <@& & & & & & +               [@}@|@1@{.'+N+'+2@3@4@5@6@7@r V L 8@9@0@a@b@V q $@7.J+c@d@                                    ",
",   , & & & & & & -               e@+@N.~@f@g@h@g@i@j@k@l@M.m@1@{@(@n@%.&.o@p@q@m+r@s@t@u@v@w@                                  ",
"& & = = & & & & & & .             x@y@z@A@B@C@ .0 D@E@F@E@G@H@Y.I@J@K@L@M@P+{.U.N@O@.+P@Q@R@S@                  .               ",
"& & & & & & & & & & % #           T@U@V@W@y.z.X@Y@Z@`@ #.#+#@###$#.+++%#&#$@*#=#-#d+c+b+;#>#,#                  * {             ",
"& & & & & & & & & & & )           '#)#!#~#{#{#]#^#/#(#_#]#6@|+:#<#^+^+[#}#|#O+J.1#2#A+3#4#'#                                    ",
"& & & & & & & & & & & !           5#6#7#8##+9#0#8#a#b#c#b#d#e#f#g#R.h#i#j#k#N@l#]#m#n#o#p#q#, % ~                               ",
"& & & & & & & & & & & #             r#_+s#:.t#u#v#w#x#y#z#A#k#B#C#C D#A@E#F+Y F#G#H#I#J#R@K#( & ) {                             ",
"& & & & & & & & & + .                 w@L#M#N#O#P#N#'#Q#R#S#F+T#U#N.l.V#W#X#Y#Z#G#`# $U@x@,#{ #                                 ",
"& & & & & & & & /                           K#.$L#5#  +$'#@$X##$$$%$&$*$^#=$-$b.;$b#x#M#>$                                      ",
"& & & & & & ( *                                         ,$'$)$w#!$z#~${$C#b.*$;$]$^$/$_+                                        ",
"# <@- % > , .                                       ($_$:$<$[$q#}$|$^$1$2$3$4$~$|$T@r#                                          ",
"                                              ($($5$6$7$8$9$0$a$b$c$d$N#N#O#e$f$x@5#                                            ",
"                                            ($($($g$h$i$j$k$l$k$m$n$o$p$q$r$s$t$u$                                              ",
"                                          ($($($_$v$w$x$y$z$A$B$C$D$E$F$G$H$I$($_$                                              ",
"                                          ($($($g$J$K$L$M$N$O$P$Q$R$S$T$U$V$_$($($($                                            ",
"                                          ($($($_$W$X$Y$Z$`$ %.%+%@%#%$%%%&%_$($($                                              ",
"                                            ($($($*%=%-%;%>%,%'%)%!%~%{%]%^%($($($                                              ",
"                                            ($($($($/%(%_%:%<%[%}%|%1%2%g$($($($                + > % > <@, +                   ",
"                                # + / + _ . . ' ($($($3%_$($4%5%5$($g$5$($($                  + & & & & & & & ) , 6%            ",
"                          * % & & & & & & & & & ($($($($($($($($($($($($($                    _ % & & & & & & & & ~             ",
"                          . , & & & & & & & & & & & & & & ($& ( '                                   # ; & & & & & & +           ",
"                          + & & & & & & & & & & & & & & & & % .                         6%~           # & & & & & & <@          ",
"                    6%/ % & & & & & & & & & % ] ] ] ] ] ] !                             6%+             ! & ( ! + # {           ",
"                    , & & & & & & & & & & , {                                                     . @ ! ^ & & & ~               ",
"                    . , % & & & & = ^ @ 6%                                                        = & & & & & & & '             ",
"                            . _ .                                                                 + & & & & & & $               ",
"                                                                                                    * ; = ^ , .                 ",
"                                                                                                                                ",
"                                                                                                                                ",
"                                                                                                                                ",
"                                                                                                                                ",
"                                                        . $                                                                     ",
"                                                        * ;                                                                     "};
